<svg id="a14c98fb-6dea-4507-88e8-3add4e0c5ef4" data-name="Layer 1" xmlns="http://www.w3.org/2000/svg" viewBox="0 0 1920 434.09"><rect width="1920" height="434.09" style="fill:#ecf0f1"/><text transform="translate(33.07 48.91)" style="font-size:33.489017486572266px;fill:#2c3e50;font-family:MyriadPro-Regular, Myriad Pro"><tspan style="letter-spacing:0.005992519602298454em">M</tspan><tspan x="27.13" y="0">odel</tspan></text><text transform="translate(1474.84 224.11)" style="font-size:38px;font-family:MyriadPro-Regular, Myriad Pro"><tspan style="letter-spacing:-0.024979440789473683em">P</tspan><tspan x="19.27" y="0" style="letter-spacing:-0.000025699013157894735em">ositi</tspan><tspan x="85.54" y="0" style="letter-spacing:-0.009996916118421052em">v</tspan><tspan x="103.43" y="0" style="letter-spacing:-0.012001439144736841em">e</tspan><tspan x="122.02" y="0">, Neut</tspan><tspan x="215.5" y="0" style="letter-spacing:-0.005011307565789474em">r</tspan><tspan x="227.73" y="0" style="letter-spacing:0.000025699013157894735em">a</tspan><tspan x="246.05" y="0" style="letter-spacing:-0.009996916118421052em">l</tspan><tspan x="254.63" y="0">, Neg</tspan><tspan x="335.84" y="0" style="letter-spacing:-0.003983347039473684em">a</tspan><tspan x="354" y="0" style="letter-spacing:-0.000025699013157894735em">ti</tspan><tspan x="375.47" y="0" style="letter-spacing:-0.009971217105263159em">v</tspan><tspan x="393.37" y="0" style="letter-spacing:-0.000025699013157894735em">e</tspan></text><rect x="1129.73" y="152.61" width="247.52" height="128.87" style="fill:#3498db"/><text transform="translate(1166.78 227.37)" style="font-size:35.16286849975586px;font-family:MyriadPro-Regular, Myriad Pro">Nai<tspan x="48.31" y="0" style="letter-spacing:-0.009998117758863756em">v</tspan><tspan x="64.87" y="0" style="letter-spacing:0.000027772549330177098em">e B</tspan><tspan x="109" y="0" style="letter-spacing:-0.007998494207091004em">a</tspan><tspan x="125.67" y="0" style="letter-spacing:-0.009998117758863756em">y</tspan><tspan x="141.88" y="0">es</tspan></text><text transform="translate(32.76 228.21)" style="font-size:38.03118133544922px;font-family:MyriadPro-Regular, Myriad Pro"><tspan style="letter-spacing:0.0059957996502583944em">S</tspan><tspan x="18.98" y="0" style="letter-spacing:0.000012838971413829538em">e</tspan><tspan x="38.03" y="0" style="letter-spacing:-0.004005759081114816em">n</tspan><tspan x="58.99" y="0" style="letter-spacing:-0.005982960678844565em">t</tspan><tspan x="71.35" y="0">en</tspan><tspan x="111.51" y="0" style="letter-spacing:-0.0059957996502583944em">c</tspan><tspan x="128.32" y="0">e</tspan></text><rect x="277.71" y="148.59" width="186.42" height="136.92" style="fill:#2c3e50"/><text transform="translate(289.68 209.94)" style="font-size:33.97329330444336px;fill:#ecf0f1;font-family:MyriadPro-Regular, Myriad Pro"><tspan style="letter-spacing:-0.0029894805631550786em">S<tspan x="16.65" y="0" style="letter-spacing:-0.005993333629017634em">t</tspan><tspan x="27.69" y="0" style="letter-spacing:-0.00001437250270747634em">op</tspan><tspan x="65.67" y="0" style="letter-spacing:-0.036003119282228234em"> </tspan><tspan x="71.65" y="0" style="letter-spacing:-0.0329848937136582em">W</tspan><tspan x="99.27" y="0" style="letter-spacing:-0.00001437250270747634em">o</tspan><tspan x="117.92" y="0" style="letter-spacing:-0.009988889381696056em">r</tspan><tspan x="128.69" y="0" style="letter-spacing:0.00001437250270747634em">ds</tspan></tspan><tspan x="0" y="40.77"> </tspan><tspan x="7.2" y="40.77" style="letter-spacing:0.003995555752678423em">R</tspan><tspan x="25.62" y="40.77">em</tspan><tspan x="70.97" y="40.77" style="letter-spacing:-0.006985036315833501em">o</tspan><tspan x="89.38" y="40.77" style="letter-spacing:-0.010003261884403532em">v</tspan><tspan x="105.38" y="40.77">er</tspan></text><path d="M6509.38,6875.37l-14.95-5.34a1.25,1.25,0,0,0-1.67,1.18v10.67a1.25,1.25,0,0,0,1.67,1.18l14.95-5.34A1.25,1.25,0,0,0,6509.38,6875.37Z" transform="translate(-6239.5 -6659.5)" style="fill:#586473"/><rect x="187.12" y="214.34" width="68.07" height="5.42" style="fill:#586473"/><path d="M6793.39,6875.37l-15-5.34a1.25,1.25,0,0,0-1.67,1.18v10.67a1.25,1.25,0,0,0,1.67,1.18l15-5.34A1.25,1.25,0,0,0,6793.39,6875.37Z" transform="translate(-6239.5 -6659.5)" style="fill:#586473"/><rect x="471.13" y="214.34" width="68.07" height="5.42" style="fill:#586473"/><rect x="561.72" y="148.59" width="186.42" height="136.92" style="fill:#2c3e50"/><text transform="translate(587.61 227.64)" style="font-size:33.97329330444336px;fill:#ecf0f1;font-family:MyriadPro-Regular, Myriad Pro;letter-spacing:-0.0029894805631550786em">S<tspan x="16.65" y="0" style="letter-spacing:-0.005993333629017634em">t</tspan><tspan x="27.69" y="0" style="letter-spacing:-0.00001437250270747634em">emmer</tspan></text><path d="M7077.39,6875.37l-15-5.34a1.25,1.25,0,0,0-1.67,1.18v10.67a1.25,1.25,0,0,0,1.67,1.18l15-5.34A1.25,1.25,0,0,0,7077.39,6875.37Z" transform="translate(-6239.5 -6659.5)" style="fill:#586473"/><rect x="755.13" y="214.34" width="68.07" height="5.42" style="fill:#586473"/><path d="M7361.4,6875.37l-15-5.34a1.25,1.25,0,0,0-1.67,1.18v10.67a1.25,1.25,0,0,0,1.67,1.18l15-5.34A1.25,1.25,0,0,0,7361.4,6875.37Z" transform="translate(-6239.5 -6659.5)" style="fill:#586473"/><rect x="1039.14" y="214.34" width="68.07" height="5.42" style="fill:#586473"/><path d="M7706.51,6875.37l-15-5.34a1.25,1.25,0,0,0-1.67,1.18v10.67a1.25,1.25,0,0,0,1.67,1.18l15-5.34A1.25,1.25,0,0,0,7706.51,6875.37Z" transform="translate(-6239.5 -6659.5)" style="fill:#3498db"/><rect x="1384.25" y="214.34" width="68.07" height="5.42" style="fill:#3498db"/><rect x="845.72" y="148.59" width="186.42" height="136.92" style="fill:#2c3e50"/><text transform="translate(871.61 227.64)" style="font-size:33.97329330444336px;fill:#ecf0f1;font-family:MyriadPro-Regular, Myriad Pro"><tspan style="letter-spacing:-0.0329848937136582em">V</tspan><tspan x="17.84" y="0" style="letter-spacing:-0.00001437250270747634em">e</tspan><tspan x="34.86" y="0" style="letter-spacing:0.012992742447558612em">c</tspan><tspan x="50.52" y="0" style="letter-spacing:-0.005993333629017634em">t</tspan><tspan x="61.56" y="0" style="letter-spacing:-0.00001437250270747634em">o</tspan><tspan x="80.21" y="0" style="letter-spacing:0.0040099282553858985em">r</tspan><tspan x="91.46" y="0">i</tspan><tspan x="99.4" y="0" style="letter-spacing:-0.0069994088185409776em">z</tspan><tspan x="113.71" y="0">er</tspan></text></svg>